<mxfile host="app.diagrams.net" modified="2024-05-23T18:43:41.452Z" agent="Mozilla/5.0 (Windows NT 10.0; Win64; x64) AppleWebKit/537.36 (KHTML, like Gecko) Chrome/125.0.0.0 Safari/537.36" etag="bDwdIy2lBpJB2SfabeQc" version="24.4.6" type="device">
  <diagram name="Сторінка-1" id="0VCBmnG4zSiHfN8LXRYG">
    <mxGraphModel dx="1290" dy="522" grid="1" gridSize="10" guides="1" tooltips="1" connect="1" arrows="1" fold="1" page="1" pageScale="1" pageWidth="827" pageHeight="1169" math="0" shadow="0">
      <root>
        <mxCell id="0" />
        <mxCell id="1" parent="0" />
        <mxCell id="kX_ZtAfK6SFoQtacrnPh-8" value="" style="shape=table;startSize=0;container=1;collapsible=0;childLayout=tableLayout;" parent="1" vertex="1">
          <mxGeometry x="190" y="380" width="120" height="60" as="geometry" />
        </mxCell>
        <mxCell id="kX_ZtAfK6SFoQtacrnPh-9" value="" style="shape=tableRow;horizontal=0;startSize=0;swimlaneHead=0;swimlaneBody=0;strokeColor=inherit;top=0;left=0;bottom=0;right=0;collapsible=0;dropTarget=0;fillColor=none;points=[[0,0.5],[1,0.5]];portConstraint=eastwest;" parent="kX_ZtAfK6SFoQtacrnPh-8" vertex="1">
          <mxGeometry width="120" height="60" as="geometry" />
        </mxCell>
        <mxCell id="kX_ZtAfK6SFoQtacrnPh-10" value="" style="shape=partialRectangle;html=1;whiteSpace=wrap;connectable=0;strokeColor=inherit;overflow=hidden;fillColor=none;top=0;left=0;bottom=0;right=0;pointerEvents=1;" parent="kX_ZtAfK6SFoQtacrnPh-9" vertex="1">
          <mxGeometry width="20" height="60" as="geometry">
            <mxRectangle width="20" height="60" as="alternateBounds" />
          </mxGeometry>
        </mxCell>
        <mxCell id="kX_ZtAfK6SFoQtacrnPh-11" value="List" style="shape=partialRectangle;html=1;whiteSpace=wrap;connectable=0;strokeColor=inherit;overflow=hidden;fillColor=none;top=0;left=0;bottom=0;right=0;pointerEvents=1;" parent="kX_ZtAfK6SFoQtacrnPh-9" vertex="1">
          <mxGeometry x="20" width="100" height="60" as="geometry">
            <mxRectangle width="100" height="60" as="alternateBounds" />
          </mxGeometry>
        </mxCell>
        <mxCell id="kX_ZtAfK6SFoQtacrnPh-19" value="" style="edgeStyle=orthogonalEdgeStyle;rounded=0;orthogonalLoop=1;jettySize=auto;html=1;" parent="1" source="kX_ZtAfK6SFoQtacrnPh-16" target="kX_ZtAfK6SFoQtacrnPh-18" edge="1">
          <mxGeometry relative="1" as="geometry" />
        </mxCell>
        <mxCell id="kX_ZtAfK6SFoQtacrnPh-16" value="Гравець 1" style="rounded=0;whiteSpace=wrap;html=1;" parent="1" vertex="1">
          <mxGeometry x="10" y="190" width="120" height="60" as="geometry" />
        </mxCell>
        <mxCell id="kX_ZtAfK6SFoQtacrnPh-17" value="Гравець 2" style="rounded=0;whiteSpace=wrap;html=1;" parent="1" vertex="1">
          <mxGeometry x="554" y="190" width="120" height="60" as="geometry" />
        </mxCell>
        <mxCell id="41qdenrQvLNRsYffpSrZ-2" value="" style="edgeStyle=orthogonalEdgeStyle;rounded=0;orthogonalLoop=1;jettySize=auto;html=1;" parent="1" source="kX_ZtAfK6SFoQtacrnPh-18" target="41qdenrQvLNRsYffpSrZ-1" edge="1">
          <mxGeometry relative="1" as="geometry" />
        </mxCell>
        <mxCell id="kX_ZtAfK6SFoQtacrnPh-18" value="Введення слова" style="rounded=1;whiteSpace=wrap;html=1;" parent="1" vertex="1">
          <mxGeometry x="10" y="290" width="120" height="60" as="geometry" />
        </mxCell>
        <mxCell id="kX_ZtAfK6SFoQtacrnPh-20" value="" style="endArrow=classic;html=1;rounded=0;entryX=0;entryY=0.5;entryDx=0;entryDy=0;exitX=1;exitY=0.5;exitDx=0;exitDy=0;" parent="1" source="41qdenrQvLNRsYffpSrZ-1" target="kX_ZtAfK6SFoQtacrnPh-9" edge="1">
          <mxGeometry width="50" height="50" relative="1" as="geometry">
            <mxPoint x="330" y="650" as="sourcePoint" />
            <mxPoint x="130" y="430" as="targetPoint" />
            <Array as="points" />
          </mxGeometry>
        </mxCell>
        <mxCell id="41qdenrQvLNRsYffpSrZ-3" value="Запис об&#39;єктів в List" style="edgeLabel;html=1;align=center;verticalAlign=middle;resizable=0;points=[];" parent="kX_ZtAfK6SFoQtacrnPh-20" vertex="1" connectable="0">
          <mxGeometry x="-0.6213" relative="1" as="geometry">
            <mxPoint x="19" y="-40" as="offset" />
          </mxGeometry>
        </mxCell>
        <mxCell id="kX_ZtAfK6SFoQtacrnPh-28" value="" style="edgeStyle=orthogonalEdgeStyle;rounded=0;orthogonalLoop=1;jettySize=auto;html=1;" parent="1" source="kX_ZtAfK6SFoQtacrnPh-21" target="kX_ZtAfK6SFoQtacrnPh-27" edge="1">
          <mxGeometry relative="1" as="geometry" />
        </mxCell>
        <mxCell id="kX_ZtAfK6SFoQtacrnPh-21" value="Введення букви&lt;br&gt;(яка на думку гравця є в слові)" style="rounded=1;whiteSpace=wrap;html=1;" parent="1" vertex="1">
          <mxGeometry x="554" y="370" width="120" height="60" as="geometry" />
        </mxCell>
        <mxCell id="kX_ZtAfK6SFoQtacrnPh-26" value="" style="endArrow=classic;html=1;rounded=0;entryX=1;entryY=0.5;entryDx=0;entryDy=0;exitX=0.492;exitY=1.028;exitDx=0;exitDy=0;exitPerimeter=0;" parent="1" source="LNTq98jpVWvdWZXtRkGz-18" target="kX_ZtAfK6SFoQtacrnPh-17" edge="1">
          <mxGeometry width="50" height="50" relative="1" as="geometry">
            <mxPoint x="250" y="570" as="sourcePoint" />
            <mxPoint x="670" y="450" as="targetPoint" />
            <Array as="points">
              <mxPoint x="249" y="570" />
              <mxPoint x="430" y="570" />
              <mxPoint x="770" y="570" />
              <mxPoint x="770" y="220" />
            </Array>
          </mxGeometry>
        </mxCell>
        <mxCell id="41qdenrQvLNRsYffpSrZ-4" value="Поточний стан слова, та кількість спроб" style="edgeLabel;html=1;align=center;verticalAlign=middle;resizable=0;points=[];" parent="kX_ZtAfK6SFoQtacrnPh-26" vertex="1" connectable="0">
          <mxGeometry x="-0.6394" y="1" relative="1" as="geometry">
            <mxPoint x="90" y="-9" as="offset" />
          </mxGeometry>
        </mxCell>
        <mxCell id="kX_ZtAfK6SFoQtacrnPh-27" value="Переврка чи буква є в слові" style="rounded=1;whiteSpace=wrap;html=1;" parent="1" vertex="1">
          <mxGeometry x="554" y="450" width="120" height="60" as="geometry" />
        </mxCell>
        <mxCell id="kX_ZtAfK6SFoQtacrnPh-29" value="" style="endArrow=classic;html=1;rounded=0;exitX=0.5;exitY=1;exitDx=0;exitDy=0;entryX=1;entryY=0.5;entryDx=0;entryDy=0;" parent="1" edge="1" target="kX_ZtAfK6SFoQtacrnPh-9">
          <mxGeometry width="50" height="50" relative="1" as="geometry">
            <mxPoint x="614" y="530" as="sourcePoint" />
            <mxPoint x="490" y="530" as="targetPoint" />
            <Array as="points">
              <mxPoint x="614" y="500" />
              <mxPoint x="614" y="530" />
              <mxPoint x="340" y="530" />
              <mxPoint x="340" y="410" />
            </Array>
          </mxGeometry>
        </mxCell>
        <mxCell id="kX_ZtAfK6SFoQtacrnPh-30" value="Якщо є то робимо відповідні&lt;br&gt;букви видимими&amp;nbsp;" style="edgeLabel;html=1;align=center;verticalAlign=middle;resizable=0;points=[];" parent="kX_ZtAfK6SFoQtacrnPh-29" vertex="1" connectable="0">
          <mxGeometry x="-0.299" y="-1" relative="1" as="geometry">
            <mxPoint x="-34" y="-19" as="offset" />
          </mxGeometry>
        </mxCell>
        <mxCell id="kX_ZtAfK6SFoQtacrnPh-31" value="Перевірка чи всі букви вже знайдені" style="rounded=1;whiteSpace=wrap;html=1;" parent="1" vertex="1">
          <mxGeometry x="380" y="380" width="120" height="60" as="geometry" />
        </mxCell>
        <mxCell id="41qdenrQvLNRsYffpSrZ-1" value="Розбиття слова на об&#39;єкти типу &quot;буква&quot;" style="rounded=1;whiteSpace=wrap;html=1;" parent="1" vertex="1">
          <mxGeometry x="10" y="380" width="120" height="60" as="geometry" />
        </mxCell>
        <mxCell id="41qdenrQvLNRsYffpSrZ-9" value="&lt;div style=&quot;text-wrap: nowrap;&quot;&gt;&lt;span style=&quot;text-wrap: wrap; background-color: initial;&quot;&gt;Виведення часу за&lt;/span&gt;&lt;/div&gt;&lt;div&gt;який гравець 2 вгадав слово&lt;/div&gt;" style="text;html=1;align=center;verticalAlign=middle;whiteSpace=wrap;rounded=0;" parent="1" vertex="1">
          <mxGeometry x="145" y="300" width="210" height="60" as="geometry" />
        </mxCell>
        <mxCell id="41qdenrQvLNRsYffpSrZ-11" value="" style="endArrow=classic;html=1;rounded=0;entryX=0.5;entryY=1;entryDx=0;entryDy=0;" parent="1" target="kX_ZtAfK6SFoQtacrnPh-31" edge="1">
          <mxGeometry width="50" height="50" relative="1" as="geometry">
            <mxPoint x="390" y="530" as="sourcePoint" />
            <mxPoint x="430" y="440" as="targetPoint" />
            <Array as="points">
              <mxPoint x="390" y="480" />
              <mxPoint x="440" y="480" />
            </Array>
          </mxGeometry>
        </mxCell>
        <mxCell id="LNTq98jpVWvdWZXtRkGz-1" value="Гравці" style="rounded=0;whiteSpace=wrap;html=1;" vertex="1" parent="1">
          <mxGeometry x="280" y="50" width="120" height="60" as="geometry" />
        </mxCell>
        <mxCell id="LNTq98jpVWvdWZXtRkGz-2" value="Вибір ролей" style="rounded=1;whiteSpace=wrap;html=1;" vertex="1" parent="1">
          <mxGeometry x="280" y="140" width="120" height="60" as="geometry" />
        </mxCell>
        <mxCell id="LNTq98jpVWvdWZXtRkGz-7" value="" style="endArrow=classic;html=1;rounded=0;exitX=0;exitY=0.5;exitDx=0;exitDy=0;entryX=0.5;entryY=0;entryDx=0;entryDy=0;" edge="1" parent="1" source="LNTq98jpVWvdWZXtRkGz-2" target="kX_ZtAfK6SFoQtacrnPh-16">
          <mxGeometry width="50" height="50" relative="1" as="geometry">
            <mxPoint x="130" y="150" as="sourcePoint" />
            <mxPoint x="180" y="100" as="targetPoint" />
            <Array as="points">
              <mxPoint x="70" y="170" />
            </Array>
          </mxGeometry>
        </mxCell>
        <mxCell id="LNTq98jpVWvdWZXtRkGz-8" value="" style="endArrow=classic;html=1;rounded=0;exitX=1;exitY=0.5;exitDx=0;exitDy=0;entryX=0.5;entryY=0;entryDx=0;entryDy=0;" edge="1" parent="1" source="LNTq98jpVWvdWZXtRkGz-2" target="kX_ZtAfK6SFoQtacrnPh-17">
          <mxGeometry width="50" height="50" relative="1" as="geometry">
            <mxPoint x="350" y="160" as="sourcePoint" />
            <mxPoint x="400" y="110" as="targetPoint" />
            <Array as="points">
              <mxPoint x="614" y="170" />
            </Array>
          </mxGeometry>
        </mxCell>
        <mxCell id="LNTq98jpVWvdWZXtRkGz-9" value="Вибір обмежень для&amp;nbsp;&lt;br&gt;гравця 2" style="rounded=1;whiteSpace=wrap;html=1;" vertex="1" parent="1">
          <mxGeometry x="10" y="480" width="120" height="60" as="geometry" />
        </mxCell>
        <mxCell id="LNTq98jpVWvdWZXtRkGz-17" value="" style="shape=table;startSize=0;container=1;collapsible=0;childLayout=tableLayout;" vertex="1" parent="1">
          <mxGeometry x="190" y="480" width="120" height="60" as="geometry" />
        </mxCell>
        <mxCell id="LNTq98jpVWvdWZXtRkGz-18" value="" style="shape=tableRow;horizontal=0;startSize=0;swimlaneHead=0;swimlaneBody=0;strokeColor=inherit;top=0;left=0;bottom=0;right=0;collapsible=0;dropTarget=0;fillColor=none;points=[[0,0.5],[1,0.5]];portConstraint=eastwest;" vertex="1" parent="LNTq98jpVWvdWZXtRkGz-17">
          <mxGeometry width="120" height="60" as="geometry" />
        </mxCell>
        <mxCell id="LNTq98jpVWvdWZXtRkGz-19" value="" style="shape=partialRectangle;html=1;whiteSpace=wrap;connectable=0;strokeColor=inherit;overflow=hidden;fillColor=none;top=0;left=0;bottom=0;right=0;pointerEvents=1;" vertex="1" parent="LNTq98jpVWvdWZXtRkGz-18">
          <mxGeometry width="20" height="60" as="geometry">
            <mxRectangle width="20" height="60" as="alternateBounds" />
          </mxGeometry>
        </mxCell>
        <mxCell id="LNTq98jpVWvdWZXtRkGz-20" value="Game" style="shape=partialRectangle;html=1;whiteSpace=wrap;connectable=0;strokeColor=inherit;overflow=hidden;fillColor=none;top=0;left=0;bottom=0;right=0;pointerEvents=1;" vertex="1" parent="LNTq98jpVWvdWZXtRkGz-18">
          <mxGeometry x="20" width="100" height="60" as="geometry">
            <mxRectangle width="100" height="60" as="alternateBounds" />
          </mxGeometry>
        </mxCell>
        <mxCell id="LNTq98jpVWvdWZXtRkGz-21" value="" style="endArrow=classic;html=1;rounded=0;exitX=0.5;exitY=1;exitDx=0;exitDy=0;entryX=0.5;entryY=0;entryDx=0;entryDy=0;" edge="1" parent="1" source="41qdenrQvLNRsYffpSrZ-1" target="LNTq98jpVWvdWZXtRkGz-9">
          <mxGeometry width="50" height="50" relative="1" as="geometry">
            <mxPoint x="120" y="620" as="sourcePoint" />
            <mxPoint x="170" y="570" as="targetPoint" />
          </mxGeometry>
        </mxCell>
        <mxCell id="LNTq98jpVWvdWZXtRkGz-22" value="" style="endArrow=classic;html=1;rounded=0;" edge="1" parent="1" target="LNTq98jpVWvdWZXtRkGz-18">
          <mxGeometry width="50" height="50" relative="1" as="geometry">
            <mxPoint x="250" y="440" as="sourcePoint" />
            <mxPoint x="370" y="420" as="targetPoint" />
          </mxGeometry>
        </mxCell>
        <mxCell id="LNTq98jpVWvdWZXtRkGz-23" value="" style="endArrow=classic;html=1;rounded=0;exitX=1;exitY=0.5;exitDx=0;exitDy=0;entryX=0;entryY=0.5;entryDx=0;entryDy=0;" edge="1" parent="1" source="LNTq98jpVWvdWZXtRkGz-9" target="LNTq98jpVWvdWZXtRkGz-18">
          <mxGeometry width="50" height="50" relative="1" as="geometry">
            <mxPoint x="140" y="510" as="sourcePoint" />
            <mxPoint x="190" y="460" as="targetPoint" />
          </mxGeometry>
        </mxCell>
        <mxCell id="LNTq98jpVWvdWZXtRkGz-24" value="Перевірка чи дотримується&amp;nbsp;&lt;br&gt;гравець 2&lt;br&gt;обмежень" style="rounded=1;whiteSpace=wrap;html=1;" vertex="1" parent="1">
          <mxGeometry x="554" y="270" width="120" height="60" as="geometry" />
        </mxCell>
        <mxCell id="LNTq98jpVWvdWZXtRkGz-25" value="" style="endArrow=classic;html=1;rounded=0;exitX=0.5;exitY=1;exitDx=0;exitDy=0;entryX=0.5;entryY=0;entryDx=0;entryDy=0;" edge="1" parent="1" source="LNTq98jpVWvdWZXtRkGz-24" target="kX_ZtAfK6SFoQtacrnPh-21">
          <mxGeometry width="50" height="50" relative="1" as="geometry">
            <mxPoint x="650" y="360" as="sourcePoint" />
            <mxPoint x="700" y="310" as="targetPoint" />
          </mxGeometry>
        </mxCell>
        <mxCell id="LNTq98jpVWvdWZXtRkGz-26" value="Так" style="edgeLabel;html=1;align=center;verticalAlign=middle;resizable=0;points=[];" vertex="1" connectable="0" parent="LNTq98jpVWvdWZXtRkGz-25">
          <mxGeometry y="1" relative="1" as="geometry">
            <mxPoint as="offset" />
          </mxGeometry>
        </mxCell>
        <mxCell id="LNTq98jpVWvdWZXtRkGz-27" value="" style="endArrow=classic;html=1;rounded=0;exitX=0.5;exitY=0;exitDx=0;exitDy=0;entryX=1;entryY=0.5;entryDx=0;entryDy=0;" edge="1" parent="1" source="kX_ZtAfK6SFoQtacrnPh-31" target="kX_ZtAfK6SFoQtacrnPh-16">
          <mxGeometry width="50" height="50" relative="1" as="geometry">
            <mxPoint x="450" y="350" as="sourcePoint" />
            <mxPoint x="440" y="320" as="targetPoint" />
            <Array as="points">
              <mxPoint x="440" y="350" />
              <mxPoint x="160" y="350" />
              <mxPoint x="160" y="220" />
            </Array>
          </mxGeometry>
        </mxCell>
        <mxCell id="LNTq98jpVWvdWZXtRkGz-28" value="Якщо так" style="edgeLabel;html=1;align=center;verticalAlign=middle;resizable=0;points=[];" vertex="1" connectable="0" parent="LNTq98jpVWvdWZXtRkGz-27">
          <mxGeometry x="-0.2" y="2" relative="1" as="geometry">
            <mxPoint x="158" y="16" as="offset" />
          </mxGeometry>
        </mxCell>
        <mxCell id="LNTq98jpVWvdWZXtRkGz-29" value="" style="endArrow=classic;html=1;rounded=0;entryX=0;entryY=0.5;entryDx=0;entryDy=0;exitX=0.25;exitY=0;exitDx=0;exitDy=0;" edge="1" parent="1" source="kX_ZtAfK6SFoQtacrnPh-16" target="LNTq98jpVWvdWZXtRkGz-1">
          <mxGeometry width="50" height="50" relative="1" as="geometry">
            <mxPoint x="70" y="190" as="sourcePoint" />
            <mxPoint x="100" y="90" as="targetPoint" />
            <Array as="points">
              <mxPoint x="40" y="120" />
              <mxPoint x="40" y="80" />
            </Array>
          </mxGeometry>
        </mxCell>
        <mxCell id="LNTq98jpVWvdWZXtRkGz-30" value="" style="endArrow=classic;html=1;rounded=0;exitX=0.75;exitY=0;exitDx=0;exitDy=0;entryX=1;entryY=0.5;entryDx=0;entryDy=0;" edge="1" parent="1" source="kX_ZtAfK6SFoQtacrnPh-17" target="LNTq98jpVWvdWZXtRkGz-1">
          <mxGeometry width="50" height="50" relative="1" as="geometry">
            <mxPoint x="620" y="180" as="sourcePoint" />
            <mxPoint x="670" y="130" as="targetPoint" />
            <Array as="points">
              <mxPoint x="644" y="80" />
            </Array>
          </mxGeometry>
        </mxCell>
        <mxCell id="LNTq98jpVWvdWZXtRkGz-31" value="" style="endArrow=classic;html=1;rounded=0;entryX=0;entryY=0.5;entryDx=0;entryDy=0;" edge="1" parent="1" target="kX_ZtAfK6SFoQtacrnPh-17">
          <mxGeometry width="50" height="50" relative="1" as="geometry">
            <mxPoint x="340" y="350" as="sourcePoint" />
            <mxPoint x="550" y="220" as="targetPoint" />
            <Array as="points">
              <mxPoint x="340" y="220" />
            </Array>
          </mxGeometry>
        </mxCell>
        <mxCell id="LNTq98jpVWvdWZXtRkGz-33" value="" style="endArrow=classic;html=1;rounded=0;exitX=0;exitY=0.5;exitDx=0;exitDy=0;" edge="1" parent="1" source="LNTq98jpVWvdWZXtRkGz-24">
          <mxGeometry width="50" height="50" relative="1" as="geometry">
            <mxPoint x="480" y="310" as="sourcePoint" />
            <mxPoint x="340" y="300" as="targetPoint" />
          </mxGeometry>
        </mxCell>
        <mxCell id="LNTq98jpVWvdWZXtRkGz-34" value="ні" style="edgeLabel;html=1;align=center;verticalAlign=middle;resizable=0;points=[];" vertex="1" connectable="0" parent="LNTq98jpVWvdWZXtRkGz-33">
          <mxGeometry x="-0.6316" relative="1" as="geometry">
            <mxPoint x="25" y="10" as="offset" />
          </mxGeometry>
        </mxCell>
        <mxCell id="LNTq98jpVWvdWZXtRkGz-36" value="Виведення слова та повідомлення що&lt;div&gt;гравець 2 не вклався в обмеження&lt;/div&gt;" style="edgeLabel;html=1;align=center;verticalAlign=middle;resizable=0;points=[];" vertex="1" connectable="0" parent="LNTq98jpVWvdWZXtRkGz-33">
          <mxGeometry x="0.4503" y="-1" relative="1" as="geometry">
            <mxPoint x="51" y="-19" as="offset" />
          </mxGeometry>
        </mxCell>
        <mxCell id="LNTq98jpVWvdWZXtRkGz-37" value="" style="endArrow=classic;html=1;rounded=0;exitX=0.5;exitY=1;exitDx=0;exitDy=0;entryX=0.5;entryY=0;entryDx=0;entryDy=0;" edge="1" parent="1" source="kX_ZtAfK6SFoQtacrnPh-17" target="LNTq98jpVWvdWZXtRkGz-24">
          <mxGeometry width="50" height="50" relative="1" as="geometry">
            <mxPoint x="730" y="280" as="sourcePoint" />
            <mxPoint x="780" y="230" as="targetPoint" />
          </mxGeometry>
        </mxCell>
        <mxCell id="LNTq98jpVWvdWZXtRkGz-39" value="" style="endArrow=classic;html=1;rounded=0;exitX=0.5;exitY=1;exitDx=0;exitDy=0;entryX=0.5;entryY=0;entryDx=0;entryDy=0;" edge="1" parent="1" source="LNTq98jpVWvdWZXtRkGz-1" target="LNTq98jpVWvdWZXtRkGz-2">
          <mxGeometry width="50" height="50" relative="1" as="geometry">
            <mxPoint x="370" y="130" as="sourcePoint" />
            <mxPoint x="420" y="80" as="targetPoint" />
          </mxGeometry>
        </mxCell>
        <mxCell id="LNTq98jpVWvdWZXtRkGz-41" value="" style="endArrow=classic;html=1;rounded=0;entryX=0;entryY=0.5;entryDx=0;entryDy=0;" edge="1" parent="1">
          <mxGeometry width="50" height="50" relative="1" as="geometry">
            <mxPoint x="160" y="260" as="sourcePoint" />
            <mxPoint x="190" y="260" as="targetPoint" />
          </mxGeometry>
        </mxCell>
        <mxCell id="LNTq98jpVWvdWZXtRkGz-42" value="" style="endArrow=classic;html=1;rounded=0;entryX=1;entryY=0.5;entryDx=0;entryDy=0;" edge="1" parent="1">
          <mxGeometry width="50" height="50" relative="1" as="geometry">
            <mxPoint x="340" y="260" as="sourcePoint" />
            <mxPoint x="310" y="260" as="targetPoint" />
          </mxGeometry>
        </mxCell>
        <mxCell id="LNTq98jpVWvdWZXtRkGz-43" value="Файл" style="rounded=0;whiteSpace=wrap;html=1;" vertex="1" parent="1">
          <mxGeometry x="190" y="230" width="120" height="60" as="geometry" />
        </mxCell>
      </root>
    </mxGraphModel>
  </diagram>
</mxfile>
